<svg width="158" height="24" viewBox="0 0 158 24" fill="none" xmlns="http://www.w3.org/2000/svg">
<path d="M38.7177 11.8257H34.959V9.77442H45.8676V11.8257H42.0852V13.9916H38.7177V11.8257ZM40.3777 9.17365C39.7104 9.18292 39.0451 9.09776 38.4015 8.9207C37.8603 8.77305 37.3511 8.52648 36.8996 8.19346C36.5021 7.89911 36.1786 7.51613 35.955 7.07492C35.7418 6.63719 35.6311 6.1567 35.6311 5.66984C35.6311 5.18297 35.7418 4.70248 35.955 4.26476C36.1797 3.82427 36.503 3.44152 36.8996 3.14622C37.3511 2.8132 37.8603 2.56663 38.4015 2.41898C39.6978 2.0843 41.0577 2.0843 42.354 2.41898C42.894 2.56657 43.4019 2.81316 43.8519 3.14622C44.25 3.44003 44.5735 3.82315 44.7965 4.26476C45.0097 4.70248 45.1205 5.18297 45.1205 5.66984C45.1205 6.1567 45.0097 6.63719 44.7965 7.07492C44.5735 7.51653 44.25 7.89965 43.8519 8.19346C43.4019 8.52652 42.894 8.77311 42.354 8.9207C41.7103 9.09729 41.0451 9.18244 40.3777 9.17365ZM40.3777 7.19745C40.8592 7.21495 41.3333 7.0763 41.7295 6.80221C41.9058 6.67432 42.0461 6.50307 42.1368 6.30502C42.2276 6.10698 42.2656 5.88887 42.2472 5.67181C42.2584 5.45498 42.2159 5.23874 42.1235 5.04225C42.0311 4.84577 41.8917 4.6751 41.7176 4.54537C41.3191 4.28743 40.8545 4.1502 40.3797 4.1502C39.905 4.1502 39.4404 4.28743 39.0418 4.54537C38.8669 4.67437 38.7269 4.84491 38.6345 5.04157C38.542 5.23824 38.5 5.45484 38.5122 5.67181C38.4931 5.88895 38.5307 6.10734 38.6215 6.30552C38.7123 6.5037 38.8531 6.67486 39.03 6.80221C39.4254 7.07399 39.8984 7.20992 40.3777 7.18954V7.19745ZM38.8324 14.7387H53.5432V19.2207H42.1998V20.1653H53.5432V21.9874H41.0694C40.4773 22.0161 39.8964 21.8183 39.445 21.434C39.2386 21.24 39.0769 21.0034 38.9711 20.7407C38.8653 20.4779 38.818 20.1953 38.8324 19.9124V17.3986H50.1758V16.5686H38.8324V14.7387ZM43.2393 12.3672H46.3736V2.37155H49.5078V13.877H43.2353L43.2393 12.3672ZM50.409 2.3834H53.5432V13.8889H50.409V2.3834Z" fill="#767676"/>
<path d="M56.8867 11.9163C57.9248 11.6942 58.9239 11.3186 59.851 10.8017C60.7968 10.2804 61.6372 9.5874 62.3292 8.75828H56.9579V6.70698H63.5031C63.741 6.0554 63.8809 5.37208 63.9181 4.6794H57.3017V2.62019H67.3092V3.77429C67.3111 4.36122 67.2608 4.94716 67.159 5.52521C67.0633 6.06369 66.9205 6.59271 66.7322 7.10618H70.238V2.36328H73.6015V13.2245H70.238V9.17328H65.6255C64.7831 10.3187 63.7049 11.2702 62.4636 11.9637C61.0475 12.7597 59.5249 13.3493 57.942 13.7146L56.8867 11.9163ZM61.8431 21.987C61.5586 22.0157 61.2713 21.9853 60.9992 21.8975C60.7271 21.8098 60.4761 21.6666 60.2621 21.4771C59.9129 21.0428 59.7432 20.4912 59.7878 19.9357V14.1257H73.5975V21.987H61.8431ZM70.238 16.177H63.1592V19.9357H70.238V16.177Z" fill="#767676"/>
<path d="M88.6881 10.7186H87.3996C87.3683 11.7483 87.1777 12.7669 86.8344 13.7382C86.5759 14.4699 86.1726 15.142 85.6487 15.7144C85.1931 16.1984 84.6279 16.5658 84.0006 16.7855C82.7062 17.2294 81.2988 17.2169 80.0126 16.75C79.3493 16.4996 78.7614 16.0832 78.3051 15.5405C77.7623 14.883 77.3589 14.1218 77.1194 13.3035C76.5344 11.0511 76.5344 8.68658 77.1194 6.43417C77.3598 5.61618 77.7631 4.85525 78.3051 4.19711C78.7614 3.65449 79.3493 3.23805 80.0126 2.98767C80.6695 2.74695 81.3642 2.62516 82.0639 2.628C82.7079 2.62659 83.3476 2.7321 83.9571 2.94024C84.5663 3.15608 85.1208 3.5028 85.5815 3.95602C86.1006 4.48993 86.5042 5.12494 86.7672 5.82156C87.1141 6.7351 87.3206 7.69588 87.3799 8.67124H88.6881V2.37109H91.8263V21.8565H88.6881V10.7186ZM82.0481 14.592C82.3209 14.5907 82.5904 14.5314 82.8385 14.4181C83.1426 14.2682 83.3916 14.0261 83.55 13.7264C83.7972 13.2778 83.9694 12.7918 84.0598 12.2877C84.318 10.6841 84.318 9.04957 84.0598 7.44599C83.9691 6.94069 83.7969 6.45348 83.55 6.00336C83.3926 5.7056 83.1468 5.46395 82.8464 5.31169C82.5931 5.19709 82.3182 5.13782 82.0401 5.13782C81.7621 5.13782 81.4872 5.19709 81.2339 5.31169C80.9342 5.465 80.6887 5.70638 80.5303 6.00336C80.2864 6.45444 80.1157 6.94137 80.0244 7.44599C79.761 9.04914 79.761 10.6845 80.0244 12.2877C80.1155 12.7911 80.2863 13.2767 80.5303 13.7264C80.6877 14.0241 80.9335 14.2658 81.2339 14.4181C81.4869 14.5336 81.762 14.5929 82.0401 14.592H82.0481ZM93.0713 2.37109H96.1977V21.9869H93.0634L93.0713 2.37109Z" fill="#767676"/>
<path d="M97.6719 16.2284H116.418V18.2797H97.6719V16.2284ZM99.7548 2.85742H114.347V4.90872H112.157V11.2326H114.576V13.2918H99.5176V11.2405H101.964V4.91663H99.7548V2.85742ZM105.332 11.2484H108.79V4.92453H105.328L105.332 11.2484Z" fill="#767676"/>
<path d="M123.312 13.4616C122.662 13.4638 122.016 13.3624 121.399 13.1612C120.79 12.9666 120.231 12.64 119.762 12.2047C119.255 11.7257 118.861 11.1397 118.608 10.4894C118.019 8.82739 118.019 7.01318 118.608 5.35122C118.862 4.70011 119.256 4.11301 119.762 3.63191C120.231 3.19757 120.79 2.87111 121.399 2.67543C122.643 2.27488 123.981 2.27488 125.225 2.67543C125.834 2.87198 126.394 3.1983 126.865 3.63191C127.373 4.12477 127.766 4.72408 128.015 5.38679C128.605 7.04875 128.605 8.86296 128.015 10.5249C127.762 11.1742 127.37 11.7599 126.865 12.2403C126.395 12.6753 125.835 13.0018 125.225 13.1968C124.605 13.3862 123.959 13.4756 123.312 13.4616ZM123.312 11.0901C123.591 11.0931 123.869 11.0435 124.13 10.9439C124.396 10.8331 124.628 10.6529 124.802 10.4222C125.015 10.1275 125.171 9.79485 125.26 9.44197C125.492 8.44878 125.492 7.41551 125.26 6.42232C125.171 6.06943 125.015 5.73677 124.802 5.44212C124.628 5.21239 124.396 5.03355 124.13 4.92436C123.603 4.72417 123.021 4.72417 122.493 4.92436C122.228 5.03313 121.997 5.21212 121.826 5.44212C121.609 5.73554 121.452 6.06854 121.363 6.42232C121.131 7.41551 121.131 8.44878 121.363 9.44197C121.452 9.79575 121.609 10.1287 121.826 10.4222C121.997 10.6528 122.228 10.833 122.493 10.9439C122.755 11.0421 123.032 11.0904 123.312 11.0862V11.0901ZM123.636 21.9751C123.351 22.0033 123.064 21.9726 122.792 21.8849C122.52 21.7972 122.269 21.6543 122.055 21.4652C121.709 21.0293 121.541 20.4786 121.584 19.9238V15.007H124.948V19.9198H137.698V21.9869L123.636 21.9751ZM134.102 9.68702H132.742V16.6907H129.608V2.37109H132.742V7.62781H134.102V2.37109H137.24V16.6907H134.102V9.68702Z" fill="#767676"/>
<path d="M153.238 16.7579H142.836C142.097 16.7579 141.571 16.5919 141.255 16.252C140.906 15.816 140.736 15.2633 140.78 14.7066V2.84934H150.444V4.90064H144.132V14.6987H153.223V2.37109H156.59V21.9869H153.223L153.238 16.7579Z" fill="#767676"/>
<path d="M13.1732 14.0549C12.8117 13.068 12.7176 12.003 12.9005 10.968L8.94805 10.2764C8.74779 11.4231 8.74779 12.5959 8.94805 13.7426C9.1576 14.9917 9.62029 16.1847 10.3077 17.2484C11.6968 17.1575 12.9931 16.5193 13.9123 15.4738C13.6018 15.0371 13.3531 14.5596 13.1732 14.0549Z" fill="#767676"/>
<path d="M28.6314 10.2761C28.2303 7.96175 27.0235 5.86386 25.2246 4.35355C23.4257 2.84325 21.1506 2.01788 18.8017 2.02347V6.0154C20.0316 6.01685 21.2313 6.39698 22.2375 7.10413C23.2438 7.81129 24.0079 8.81115 24.426 9.96781C24.5461 10.2949 24.636 10.6323 24.6948 10.9757C24.7578 11.3187 24.7908 11.6665 24.7936 12.0152C24.7913 12.3639 24.7582 12.7117 24.6948 13.0546C24.6365 13.3982 24.5465 13.7356 24.426 14.0625C24.3072 14.3907 24.1605 14.7081 23.9873 15.0111C23.8116 15.3113 23.6121 15.5968 23.3905 15.8648C22.8292 16.5351 22.1278 17.0743 21.3357 17.4444C20.5436 17.8145 19.68 18.0066 18.8057 18.007C17.8779 19.3702 16.6468 20.4999 15.209 21.3073C17.1462 22.0734 19.2759 22.2077 21.294 21.6909C23.312 21.1741 25.1151 20.0328 26.4457 18.4299C26.8188 17.9835 27.1533 17.5062 27.4457 17.0031C28.0319 15.9969 28.4335 14.8939 28.6314 13.7463C28.8369 12.6 28.8369 11.4263 28.6314 10.2801V10.2761Z" fill="#767676"/>
<path d="M19.8253 10.2764L15.8729 10.968C15.9345 11.3111 15.9663 11.6589 15.9677 12.0075C15.9647 12.7061 15.8403 13.3989 15.6002 14.0549C15.3249 14.7865 14.9101 15.4576 14.3789 16.0311C13.433 17.0692 12.1507 17.7398 10.7584 17.9243C10.4965 17.9606 10.2324 17.9804 9.96797 17.9836C9.09286 17.9845 8.22824 17.7931 7.43529 17.4229C6.64233 17.0527 5.94042 16.5128 5.37921 15.8414C4.93087 15.3054 4.57913 14.6955 4.33973 14.0391C3.97564 13.0527 3.88283 11.9867 4.07097 10.9522C4.13161 10.6092 4.22152 10.272 4.33973 9.94435C4.75902 8.7877 5.52399 7.78803 6.53083 7.08097C7.53768 6.37392 8.73766 5.99371 9.96797 5.99194V2C7.91903 2.00028 5.91975 2.63071 4.24126 3.80579C2.56277 4.98088 1.28629 6.64375 0.584934 8.56891C0.389282 9.12364 0.245072 9.6952 0.154123 10.2764C-0.0513742 11.4226 -0.0513742 12.5963 0.154123 13.7426C0.252132 14.3149 0.401612 14.8771 0.600744 15.4224C0.796816 15.9715 1.04428 16.5008 1.33985 17.0034C2.2957 18.6419 3.69771 19.9748 5.38237 20.8468C7.06702 21.7187 8.96486 22.0937 10.8545 21.9279C12.7442 21.7622 14.5478 21.0626 16.055 19.9108C17.5621 18.7589 18.7107 17.2023 19.3668 15.4224C19.5659 14.8771 19.7154 14.3149 19.8134 13.7426C20.0137 12.5959 20.0137 11.4231 19.8134 10.2764H19.8253Z" fill="#767676"/>
</svg>
