<svg width="72" height="72" viewBox="0 0 72 72" fill="none" xmlns="http://www.w3.org/2000/svg">
<path fill-rule="evenodd" clip-rule="evenodd" d="M67.9997 39.0969C67.9996 55.0596 55.0594 67.9999 39.0967 68.0001V39.0969H67.9997Z" fill="#EA002C"/>
<path fill-rule="evenodd" clip-rule="evenodd" d="M61.8066 32.9034H32.9037V61.8071C32.9035 61.8071 32.9034 61.8071 32.9033 61.8071C16.9404 61.8071 4 48.8666 4 32.9038C4 16.9409 16.9404 4.00049 32.9033 4.00049C48.866 4.00049 61.8064 16.9407 61.8066 32.9034Z" fill="#DEDEDE"/>
<path fill-rule="evenodd" clip-rule="evenodd" d="M32.9038 4.00017C16.9415 4.00053 4.00156 16.9408 4.00145 32.9033L32.9038 32.9033L32.9038 4.00017Z" fill="#EA002C"/>
<path fill-rule="evenodd" clip-rule="evenodd" d="M61.8058 32.9033C61.8057 16.9408 48.866 4.00062 32.9038 4.00017V32.9033H61.8058Z" fill="#DEDEDE"/>
</svg>
